<?xml version="1.0" encoding="iso-8859-1"?>
<!-- Uploaded to: SVG Repo, www.svgrepo.com, Generator: SVG Repo Mixer Tools -->
<svg height="800px" width="800px" version="1.1" id="Layer_1" xmlns="http://www.w3.org/2000/svg" xmlns:xlink="http://www.w3.org/1999/xlink" 
	 viewBox="0 0 511.999 511.999" xml:space="preserve">
<path style="fill:#F24141;" d="M443.437,183.333C427.749-49,84.248-49,68.559,183.333c-0.501,7.421-0.755,14.91-0.755,22.459
	c0,131.226,76.958,244.462,188.194,297.086c111.238-52.624,188.196-165.86,188.196-297.086
	C444.193,198.243,443.938,190.755,443.437,183.333z"/>
<path style="fill:#F97D7D;" d="M443.437,183.333C435.327,63.232,339.618,5.222,246.876,9.29
	c86.665,3.802,170.738,61.812,178.316,174.043c0.501,7.421,0.755,14.91,0.755,22.459c0,127.606-72.775,238.193-179.073,292.585
	c3.015,1.544,6.054,3.049,9.123,4.501c111.238-52.624,188.194-165.86,188.194-297.086
	C444.193,198.243,443.938,190.755,443.437,183.333z"/>
<path style="fill:#D83535;" d="M256.755,502.877C145.518,450.258,68.559,337.014,68.559,205.793c0-7.554,0.255-15.034,0.766-22.466
	C77.159,67.164,166.963,9.083,256.755,9.083c-72.106,0.012-144.2,58.093-150.501,174.244c-0.401,7.432-0.608,14.913-0.608,22.466
	C105.646,337.015,167.437,450.258,256.755,502.877z"/>
<circle style="fill:#E6EAEF;" cx="255.993" cy="201.418" r="127.207"/>
<path style="fill:#79C4F7;" d="M376.151,243.269c-17.297,49.701-64.565,85.352-120.152,85.352
	c-58.227,0-107.308-39.118-122.415-92.504c0,0,78.151-0.633,122.098-77.434c0,0,75.171,1.739,120.456,84.586L376.151,243.269
	L376.151,243.269z"/>
<path d="M452.539,182.719c-1.855-27.469-8.225-52.912-18.93-75.623c-2.149-4.558-7.583-6.51-12.142-4.362
	c-4.557,2.148-6.51,7.584-4.362,12.142c9.731,20.644,15.528,43.883,17.229,69.072c0.488,7.219,0.735,14.568,0.735,21.843
	c0,61.668-17.609,121.515-50.923,173.068c-31.668,49.007-75.917,88.313-128.149,113.893
	c-52.232-25.58-96.479-64.886-128.149-113.893C94.533,327.306,76.925,267.46,76.925,205.792c0-7.27,0.248-14.621,0.735-21.843
	c2.773-41.075,16.123-76.152,39.679-104.258c21.055-25.123,49.785-43.62,83.081-53.492c35.165-10.427,73.976-10.618,109.288-0.542
	c37.195,10.613,68.419,31.628,90.295,60.776c3.024,4.03,8.742,4.844,12.772,1.821c4.03-3.025,4.844-8.743,1.82-12.772
	C390.31,43.12,355.772,19.824,314.716,8.11c-38.604-11.014-81.034-10.803-119.48,0.595c-36.744,10.894-68.515,31.387-91.879,59.265
	c-26.09,31.13-40.859,69.738-43.899,114.748c-0.516,7.631-0.777,15.394-0.777,23.073c0,65.19,18.619,128.46,53.845,182.97
	c34.301,53.081,82.564,95.393,139.573,122.362c1.235,0.584,2.568,0.876,3.901,0.876c1.333,0,2.666-0.292,3.902-0.876
	c57.007-26.969,105.271-69.282,139.572-122.362c35.226-54.51,53.845-117.782,53.845-182.97
	C453.315,198.107,453.054,190.344,452.539,182.719z"/>
<path d="M255.998,319.495c-27.372,0-54.05-9.578-75.119-26.97c-3.885-3.208-9.635-2.658-12.842,1.227
	c-3.208,3.885-2.658,9.635,1.227,12.842c24.33,20.085,55.133,31.146,86.734,31.146c75.17,0,136.326-61.155,136.326-136.326
	S331.168,65.088,255.998,65.088s-136.326,61.156-136.326,136.326c0,30.323,9.744,59.028,28.179,83.012
	c3.07,3.995,8.798,4.744,12.792,1.673c3.995-3.07,4.744-8.798,1.673-12.792c-6.937-9.024-12.448-18.823-16.468-29.172
	c8.686-1.236,21.311-3.858,35.615-9.434c23.209-9.047,55.331-27.864,79.116-66.405c6.881,0.894,20.024,3.395,35.44,10.309
	c29.08,13.042,52.628,35.073,70.081,65.468C348.961,288.16,306.072,319.495,255.998,319.495z M302.608,161.566
	c-25.817-11.391-45.878-11.978-46.719-11.997c-3.367-0.081-6.466,1.685-8.128,4.589c-17.03,29.76-41.334,51.047-72.235,63.273
	c-14.678,5.807-27.463,8.089-34.967,8.984c-1.742-8.127-2.643-16.488-2.643-25.001c0-65.109,52.97-118.081,118.081-118.081
	c65.109,0,118.081,52.97,118.081,118.081c0,6.397-0.519,12.674-1.502,18.799C349.774,187.577,322.684,170.422,302.608,161.566z"/>
</svg>